<?xml version="1.0" standalone="no"?>
<!DOCTYPE svg PUBLIC "-//W3C//DTD SVG 20010904//EN"
 "http://www.w3.org/TR/2001/REC-SVG-20010904/DTD/svg10.dtd">
<svg version="1.0" xmlns="http://www.w3.org/2000/svg"
 width="1000.000000pt" height="1000.000000pt" viewBox="0 0 1000.000000 1000.000000"
 preserveAspectRatio="xMidYMid meet">
<metadata>
Created by potrace 1.11, written by Peter Selinger 2001-2013
</metadata>
<g transform="translate(0.000000,1000.000000) scale(0.100000,-0.100000)"
fill="#000000" stroke="none">
<path d="M2771 6869 c-318 -37 -576 -209 -695 -464 -66 -142 -86 -267 -86
-547 l0 -188 -250 0 -250 0 0 -140 0 -140 250 0 250 0 0 -935 0 -935 170 0
170 0 2 933 3 932 373 3 372 2 0 140 0 140 -372 2 -373 3 -3 115 c-2 63 1 171
7 241 17 200 62 317 161 416 95 96 221 144 375 144 100 0 180 -18 270 -60 117
-54 245 -186 245 -252 0 -18 7 -32 20 -39 18 -10 26 2 100 156 88 183 87 177
22 236 -153 138 -322 215 -525 237 -107 12 -130 12 -236 0z"/>
<path d="M4100 6705 l0 -145 325 0 325 0 0 -1375 0 -1375 -340 0 -340 0 0
-145 0 -145 855 0 855 0 0 145 0 145 -335 0 -335 0 0 1520 0 1520 -505 0 -505
0 0 -145z"/>
<path d="M6350 3275 l0 -155 1080 0 1080 0 0 155 0 155 -1080 0 -1080 0 0
-155z"/>
</g>
</svg>
